# Blender v2.78 (sub 0) OBJ File: 'SV_Voronoi_Test_02.blend'
# www.blender.org
mtllib mdl.mtl
o Sv_0_Sv_0.003
v -1.012561 -0.484414 0.298157
v -1.449167 -0.484414 0.344877
v -1.204196 -0.484414 0.221212
v -1.375031 -0.492023 0.495156
v -1.152667 -0.261833 0.485008
v -0.993357 -0.492810 0.493426
v -1.036988 -0.282310 0.485008
v -1.152827 -0.070082 0.082766
v -1.417696 0.099659 -0.484050
v -1.397248 -0.226683 -0.484050
v -1.647678 0.114898 -0.484817
v -1.640771 0.025063 -0.059125
v -1.242287 -0.021556 -0.046736
v -1.646891 -0.394007 -0.485015
v -1.640771 -0.308270 -0.064274
v -0.951280 0.028987 0.485079
v -0.671813 0.079370 0.438982
v -0.671813 0.355827 0.363001
v -0.665335 0.078046 0.498458
v -1.142556 0.220507 0.485079
v -0.672692 0.417458 0.495536
v -1.113010 0.040449 0.092621
v -1.317101 0.315890 0.484965
v -1.303905 0.494084 0.499438
v -1.305944 0.484428 0.460624
v -1.158216 0.238974 0.484965
v -0.677977 0.498301 0.493748
v -0.671912 0.379072 0.356843
v -1.079496 0.484428 0.229623
v -0.672797 0.441489 0.495486
v -0.656371 0.496161 0.319694
v -0.706539 0.484428 0.280927
v -1.133954 0.070269 0.083449
v -1.650183 -0.496219 0.091098
v -1.471414 -0.485060 0.264549
v -1.639838 -0.499402 -0.479633
v -1.487636 -0.485060 0.263973
v -1.236599 -0.485060 0.129096
v -1.203870 -0.091111 -0.016165
v -1.639858 -0.382385 -0.052987
v -1.124584 -0.485060 -0.387450
v -1.646084 -0.472840 -0.484799
v -1.202083 -0.492780 -0.497234
v -1.366694 -0.289532 -0.483775
v -1.514185 0.105184 0.484312
v -1.482289 -0.050856 0.484312
v -1.651142 0.126650 0.487256
v -1.246377 -0.007587 0.060417
v -1.640689 0.120562 0.126913
v -1.655466 -0.479877 0.470119
v -1.640689 0.080668 0.111399
v -1.649916 -0.449361 0.499646
v -1.655466 -0.499491 0.489253
v -1.636625 -0.483465 0.466532
v -1.380549 0.495099 -0.492159
v -1.323154 0.340665 -0.483734
v -1.640636 0.081940 -0.046782
v -1.640636 0.133060 0.054378
v -1.238916 0.052886 -0.026690
v -1.646121 0.497607 -0.031857
v -1.640636 0.408347 0.048804
v -1.646192 0.489418 -0.483633
v -1.374821 0.484331 -0.255659
v -1.647680 0.188876 -0.484507
v -1.640636 0.163027 0.072280
v -1.415242 0.162667 -0.483734
v -1.652056 -0.494232 0.226569
v -1.544429 -0.483765 0.323053
v -1.629953 -0.483765 0.439982
v -1.254248 -0.035635 0.030768
v -1.640836 -0.310213 -0.004612
v -1.640836 0.022870 -0.004061
v -1.640836 0.068312 0.092620
v -1.655345 -0.480213 0.440844
v -0.799371 -0.484265 0.309854
v -0.665680 -0.482942 0.495805
v -0.980010 -0.484265 0.301492
v -0.950110 -0.492703 0.493431
v -0.664985 -0.006671 0.498076
v -1.012141 -0.271737 0.484933
v -0.947728 -0.042796 0.484933
v -0.671527 -0.172024 0.291885
v -1.104866 -0.046649 0.083980
v -0.659948 -0.489073 0.373714
v -0.933923 -0.031676 0.484933
v -0.671527 0.008508 0.426062
v -0.817575 -0.485128 0.224140
v -0.842482 -0.485128 -0.396277
v -0.991918 -0.485128 0.228602
v -1.167780 -0.485128 0.137918
v -0.799283 -0.485128 -0.302852
v -1.110340 -0.098456 -0.010199
v -1.061121 -0.485128 -0.372160
v -1.388186 0.326416 0.484230
v -1.640347 0.170693 0.126166
v -1.229505 0.061984 0.057614
v -1.640347 0.418779 0.093615
v -1.650855 0.198460 0.487242
v -1.502945 0.154683 0.484230
v -1.646718 0.489676 0.489057
v -1.397078 0.494578 0.498683
v -1.646170 0.497981 0.189640
v -1.376404 0.484449 0.437734
v -0.659018 -0.489177 -0.243488
v -0.659530 -0.489268 0.287989
v -1.071160 -0.070143 0.005446
v -0.779860 -0.484678 0.233622
v -0.670804 -0.184093 0.222918
v -0.670804 -0.181719 0.111767
v -0.766550 -0.484678 -0.306461
v -1.120254 0.093830 -0.027337
v -1.072161 0.485157 0.137763
v -0.656765 0.495093 0.076922
v -0.675437 0.408768 -0.497241
v -0.676849 0.496954 -0.479620
v -0.716593 0.485157 0.204207
v -1.278051 0.485157 -0.238826
v -1.227970 0.371680 -0.483755
v -0.671578 0.349630 -0.388881
v -1.269863 0.495910 -0.491737
v -1.127408 -0.084615 0.485165
v -1.142183 -0.236743 0.485165
v -0.972466 -0.039600 0.485165
v -1.035682 -0.255245 0.485165
v -1.140700 -0.036703 0.099446
v -1.417486 -0.491591 0.495555
v -1.570540 -0.484071 0.472550
v -1.475183 -0.484071 0.360752
v -1.166566 -0.243078 0.485184
v -1.409894 -0.072898 0.485184
v -1.483145 -0.484071 0.361186
v -1.182893 -0.051399 0.095387
v -1.581221 -0.485288 0.499696
v -1.154361 -0.084506 0.485184
v -1.400726 -0.023121 0.485315
v -1.163456 0.014651 0.103494
v -1.437129 0.114547 0.485315
v -1.330777 0.272667 0.485315
v -0.980711 0.009424 0.485315
v -1.145713 -0.046839 0.485315
v -0.981157 -0.000476 0.485315
v -1.181262 0.195371 0.485315
v -0.657573 -0.496709 -0.493766
v -0.712545 -0.496709 -0.498442
v -0.670520 -0.157500 0.077670
v -1.063103 -0.049953 -0.039061
v -0.657573 -0.393680 -0.493916
v -0.658315 -0.488549 -0.306856
v -0.747496 -0.484135 -0.354706
v -0.786220 -0.484135 -0.437258
v -0.670520 0.001960 -0.299213
v -0.670314 -0.112417 0.219019
v -0.670314 0.057693 -0.277214
v -0.670314 0.273849 -0.337970
v -0.670314 -0.109916 0.108270
v -0.670314 0.053537 0.344472
v -0.670314 0.312332 0.275611
v -1.052451 0.022760 0.007579
v -0.670314 0.427884 0.202254
v -1.289144 -0.210440 -0.485145
v -1.010419 -0.499700 -0.499945
v -0.815264 -0.466962 -0.485145
v -0.671469 0.271914 -0.441561
v -1.065824 -0.490639 -0.499945
v -1.314116 0.102401 -0.485145
v -1.217072 0.273215 -0.485145
v -1.058991 -0.483570 -0.483665
v -0.660499 -0.224395 -0.495873
v -1.118577 -0.013221 -0.096493
v -0.674999 0.297766 -0.498539
v -0.671469 0.040579 -0.372256
v -1.202020 0.095523 0.023507
v -1.348531 0.485047 0.397625
v -1.141337 0.485047 0.170913
v -1.645115 0.498992 0.048460
v -1.639882 0.457823 0.078835
v -1.338645 0.485047 -0.196864
v -1.645481 0.498992 0.127102
vn -0.4380 -0.2356 -0.8676
vn 0.3510 -0.3356 -0.8742
vn 0.9628 0.2367 -0.1302
vn -0.0028 -0.9994 -0.0350
vn 0.1578 0.8914 0.4249
vn -0.6616 0.6725 0.3316
vn 0.0052 0.0400 0.9992
vn 0.0911 0.9716 0.2184
vn -0.0329 -0.0154 0.9993
vn -0.9999 -0.0010 0.0154
vn 0.5623 -0.8095 0.1689
vn 0.0035 0.0003 -1.0000
vn 0.9320 0.0584 -0.3577
vn 0.1626 -0.9827 -0.0883
vn 0.6152 -0.2089 -0.7602
vn -0.6829 -0.6821 0.2615
vn -0.0297 -0.0056 0.9995
vn 0.9995 0.0079 -0.0316
vn -0.3485 0.8436 -0.4086
vn -0.6759 0.3227 -0.6626
vn -0.4110 -0.8491 0.3319
vn 0.1293 0.3149 -0.9403
vn -0.9236 0.0058 -0.3832
vn 0.6282 -0.3082 -0.7143
vn -0.0176 0.9983 -0.0556
vn 0.9959 -0.0414 0.0802
vn 0.3474 -0.8561 0.3825
vn -0.0025 -0.0446 0.9990
vn -0.5238 0.7040 0.4796
vn 0.0254 -0.9996 0.0138
vn 0.9773 -0.0031 0.2119
vn 0.4814 0.2677 0.8346
vn -0.0273 0.0158 -0.9995
vn -0.9997 0.0225 -0.0062
vn -0.0286 0.5929 0.8048
vn 0.6587 0.5788 -0.4808
vn -0.5393 0.8260 -0.1639
vn -0.2600 -0.6743 -0.6912
vn 0.0370 0.0186 0.9991
vn -0.9999 0.0081 -0.0139
vn 0.8527 0.1743 0.4924
vn 0.2644 0.9630 -0.0521
vn -0.0393 0.3622 -0.9313
vn 0.8354 -0.3158 0.4498
vn -0.2245 -0.5203 -0.8239
vn 0.2619 0.0919 0.9607
vn 0.0707 -0.5116 0.8563
vn -0.9999 -0.0061 0.0107
vn 0.8090 -0.4186 -0.4127
vn -0.0057 -0.0138 -0.9999
vn 0.0157 0.9999 0.0036
vn -0.0775 -0.9725 -0.2197
vn -0.0868 -0.8891 0.4493
vn 0.5696 0.5288 0.6292
vn 0.9478 0.3184 0.0141
vn 0.0180 -0.9987 0.0471
vn 0.5274 -0.6768 -0.5136
vn 0.1727 0.8914 -0.4190
vn 0.0900 0.0016 -0.9959
vn -0.9996 0.0117 -0.0240
vn 0.2592 0.5180 0.8152
vn 0.7996 -0.1363 0.5848
vn -0.6102 0.7575 0.2319
vn -0.9014 0.2536 0.3508
vn -0.9656 -0.2376 0.1061
vn -0.0321 0.0086 0.9994
vn 0.4870 0.5210 -0.7010
vn 0.9997 0.0173 -0.0160
vn 0.0416 -0.4352 -0.8994
vn 0.0087 -0.9998 -0.0156
vn 0.3804 -0.2076 -0.9012
vn -0.1396 0.9888 0.0528
vn 0.0000 -1.0000 -0.0000
vn -0.4243 0.3782 0.8228
vn 0.0217 0.5301 0.8476
vn -0.0808 0.6757 -0.7328
vn 0.6267 0.7234 -0.2898
vn 0.7889 0.6139 0.0274
vn -0.9766 0.0669 -0.2042
vn -0.9998 -0.0017 -0.0211
vn 0.0186 0.9998 -0.0040
vn 0.0005 -0.0305 0.9995
vn -0.1960 -0.1276 -0.9723
vn 0.9430 0.0272 0.3316
vn 0.5267 0.6640 -0.5307
vn 0.6960 -0.4651 0.5471
vn -0.2563 -0.9650 0.0552
vn -0.8128 -0.5822 -0.0200
vn 0.2633 0.9645 0.0206
vn -0.0395 -0.9992 -0.0006
vn 0.3629 0.7132 -0.5997
vn -0.4215 0.1845 0.8878
vn 0.9993 0.0372 0.0009
vn 0.0548 -0.8527 -0.5196
vn -0.8735 -0.0941 0.4776
vn 0.9993 0.0144 -0.0347
vn -0.9295 -0.3683 -0.0194
vn -0.0154 0.9997 0.0188
vn 0.6097 -0.7614 0.2203
vn -0.0027 0.0448 -0.9990
vn -0.1710 -0.3651 0.9151
vn -0.9943 0.0966 0.0463
vn -0.0000 0.0000 1.0000
vn 0.8845 -0.2593 -0.3877
vn -0.1524 -0.8771 -0.4555
vn -0.2767 0.9524 0.1278
vn -0.0413 -0.9983 -0.0400
vn -0.8258 0.3366 -0.4524
vn 0.6601 -0.6666 -0.3463
vn -0.7760 0.1644 -0.6090
vn 0.0168 0.0197 0.9997
vn -0.0472 -0.4989 -0.8654
vn 0.9939 -0.0765 -0.0792
vn 0.0452 0.9957 0.0813
vn -0.8194 -0.2167 -0.5306
vn 0.2675 -0.9493 -0.1653
vn 0.6484 0.6993 -0.3008
vn -0.6668 0.4485 -0.5952
vn 0.9010 -0.0406 -0.4318
vn -0.0915 -0.9838 -0.1542
vn 0.4265 0.8251 -0.3706
vn 0.1352 0.9125 0.3861
vn 0.0847 -0.0014 -0.9964
vn -0.3700 -0.7084 0.6010
vn -0.6509 -0.6951 0.3053
vn -0.5549 0.3464 -0.7563
vn -0.0693 -0.9960 0.0570
vn 0.9997 0.0231 0.0119
vn -0.2086 -0.8969 -0.3900
vn -0.3229 -0.9462 -0.0214
vn -0.6606 0.7220 -0.2059
vn -0.5694 -0.2224 -0.7914
vn 1.0000 -0.0000 0.0000
vn -0.5477 -0.5045 0.6674
vn -0.6575 0.1937 0.7281
vn -0.7065 0.3793 0.5975
vn -0.1446 -0.8840 0.4445
vn 0.4861 0.2508 0.8371
vn -0.0128 0.0022 -0.9999
vn -0.6398 -0.5361 0.5507
vn 0.5321 -0.3247 0.7820
vn -0.7507 0.4265 0.5046
vn 0.0477 -0.6313 0.7740
vn -0.0444 0.8133 0.5801
vn 0.9997 0.0206 0.0140
vn -0.8994 -0.0718 0.4312
vn 0.8804 0.0416 -0.4723
vn -0.9916 -0.1295 -0.0046
vn 0.6922 -0.3472 0.6326
vn -0.5365 -0.5496 -0.6404
vn 0.0289 0.9996 0.0004
vn -0.5050 -0.6886 0.5203
usemtl None
s off
f 2//1 8//1 3//1
f 8//2 1//2 3//2
f 7//3 6//3 1//3 8//3
f 1//4 6//4 4//4 2//4 3//4
f 5//5 7//5 8//5
f 5//6 8//6 2//6 4//6
f 6//7 7//7 5//7 4//7
f 9//8 11//8 12//8 13//8
f 12//9 15//9 13//9
f 15//10 12//10 11//10 14//10
f 13//11 15//11 14//11 10//11
f 10//12 14//12 11//12 9//12
f 9//13 13//13 10//13
f 19//14 16//14 22//14 17//14
f 17//15 22//15 18//15
f 20//16 22//16 16//16
f 19//17 21//17 20//17 16//17
f 19//18 17//18 18//18 21//18
f 20//19 21//19 18//19 22//19
f 33//20 25//20 29//20
f 33//21 26//21 23//21
f 33//22 29//22 32//22
f 23//23 24//23 25//23 33//23
f 31//24 28//24 33//24 32//24
f 29//25 25//25 24//25 27//25 31//25 32//25
f 28//26 31//26 27//26 30//26
f 30//27 26//27 33//27 28//27
f 30//28 27//28 24//28 23//28 26//28
f 39//29 40//29 34//29 37//29
f 41//30 38//30 35//30 37//30 34//30 36//30 43//30
f 41//31 39//31 38//31
f 38//32 39//32 35//32
f 44//33 43//33 36//33 42//33
f 34//34 40//34 42//34 36//34
f 35//35 39//35 37//35
f 41//36 43//36 44//36 39//36
f 40//37 39//37 44//37 42//37
f 54//38 53//38 50//38
f 52//39 46//39 45//39 47//39
f 52//40 47//40 49//40 51//40 50//40 53//40
f 45//41 46//41 48//41
f 49//42 47//42 45//42 48//42
f 49//43 48//43 51//43
f 52//44 53//44 54//44 48//44 46//44
f 50//45 51//45 48//45 54//45
f 61//46 65//46 59//46
f 59//47 65//47 58//47
f 65//48 61//48 60//48 62//48 64//48 57//48 58//48
f 59//49 66//49 56//49
f 66//50 64//50 62//50 55//50 56//50
f 55//51 62//51 60//51 63//51
f 59//52 57//52 64//52 66//52
f 57//53 59//53 58//53
f 59//54 63//54 60//54 61//54
f 63//55 59//55 56//55 55//55
f 67//56 68//56 69//56 74//56
f 68//57 67//57 71//57 70//57
f 70//58 72//58 73//58
f 70//59 71//59 72//59
f 74//60 73//60 72//60 71//60 67//60
f 73//61 74//61 69//61 70//61
f 69//62 68//62 70//62
f 83//63 81//63 85//63
f 83//64 80//64 81//64
f 77//65 78//65 80//65 83//65
f 76//66 79//66 85//66 81//66 80//66 78//66
f 82//67 83//67 86//67
f 84//68 82//68 86//68 79//68 76//68
f 77//69 83//69 75//69
f 84//70 76//70 78//70 77//70 75//70
f 82//71 84//71 75//71 83//71
f 83//72 85//72 79//72 86//72
f 91//73 87//73 89//73 90//73 93//73 88//73
f 90//74 89//74 92//74
f 87//75 92//75 89//75
f 93//76 92//76 88//76
f 88//77 92//77 91//77
f 91//78 92//78 87//78
f 92//79 93//79 90//79
f 98//80 100//80 102//80 97//80 95//80
f 103//81 102//81 100//81 101//81
f 99//82 94//82 101//82 100//82 98//82
f 96//83 95//83 97//83
f 96//84 103//84 101//84 94//84
f 96//85 97//85 102//85 103//85
f 99//86 96//86 94//86
f 99//87 98//87 95//87 96//87
f 106//88 110//88 107//88
f 108//89 109//89 106//89
f 104//90 105//90 107//90 110//90
f 106//91 109//91 104//91 110//91
f 105//92 108//92 106//92 107//92
f 104//93 109//93 108//93 105//93
f 119//94 111//94 118//94 114//94
f 117//95 111//95 112//95
f 114//96 115//96 113//96 119//96
f 118//97 111//97 117//97 120//97
f 115//98 120//98 117//98 112//98 116//98 113//98
f 113//99 116//99 111//99 119//99
f 115//100 114//100 118//100 120//100
f 111//101 116//101 112//101
f 125//102 122//102 121//102
f 124//103 123//103 121//103 122//103
f 124//104 125//104 123//104
f 124//105 122//105 125//105
f 123//106 125//106 121//106
f 128//107 126//107 133//107 127//107 131//107
f 127//108 133//108 130//108 132//108
f 132//109 129//109 126//109 128//109
f 127//110 132//110 131//110
f 129//111 134//111 130//111 133//111 126//111
f 132//112 128//112 131//112
f 129//113 132//113 134//113
f 134//114 132//114 130//114
f 136//115 135//115 137//115
f 140//116 136//116 141//116
f 136//117 142//117 139//117
f 138//118 136//118 137//118
f 135//103 140//103 141//103 139//103 142//103 138//103 137//103
f 141//119 136//119 139//119
f 136//120 140//120 135//120
f 142//121 136//121 138//121
f 151//122 146//122 145//122
f 147//123 143//123 144//123
f 148//124 145//124 146//124 149//124
f 149//125 146//125 150//125
f 147//126 144//126 150//126 146//126 151//126
f 143//127 148//127 149//127 150//127 144//127
f 143//128 147//128 151//128 145//128 148//128
f 155//129 158//129 153//129
f 155//130 152//130 158//130
f 159//131 154//131 158//131
f 153//132 158//132 154//132
f 153//133 154//133 159//133 157//133 156//133 152//133 155//133
f 152//134 156//134 158//134
f 156//135 157//135 158//135
f 158//136 157//136 159//136
f 161//137 167//137 164//137
f 163//138 169//138 171//138
f 170//139 168//139 162//139 161//139 164//139 160//139 165//139 166//139
f 164//140 167//140 169//140 160//140
f 171//141 169//141 162//141 168//141
f 169//142 166//142 165//142
f 169//143 167//143 161//143 162//143
f 169//144 163//144 170//144 166//144
f 168//145 170//145 163//145 171//145
f 160//146 169//146 165//146
f 172//147 177//147 174//147
f 176//148 178//148 175//148
f 173//149 172//149 174//149
f 177//150 172//150 176//150 175//150
f 174//151 177//151 175//151 178//151 173//151
f 176//152 172//152 173//152 178//152
